<?xml version="1.0" ?><!DOCTYPE svg  PUBLIC '-//W3C//DTD SVG 1.1//EN'  'http://www.w3.org/Graphics/SVG/1.1/DTD/svg11.dtd'><svg height="100%" style="fill-rule:evenodd;clip-rule:evenodd;stroke-linejoin:round;stroke-miterlimit:2;" version="1.1" viewBox="0 0 6000 6000" width="100%" xml:space="preserve" xmlns="http://www.w3.org/2000/svg" xmlns:serif="http://www.serif.com/" xmlns:xlink="http://www.w3.org/1999/xlink"><g transform="matrix(0.514596,8.15818,-8.15818,0.514596,9225.65,-10206.2)"><path d="M1365.95,1037.29C1369.07,1035.38 1370.92,1032.01 1372.78,1028.8C1376.23,1022.82 1379.18,1016.3 1383.81,1011.11C1388.26,1006.13 1394.35,1003.29 1398.99,998.611C1403.23,994.333 1406.09,988.968 1410.44,984.771C1414.45,980.915 1420.25,978.279 1426.09,975.618C1426.02,976.482 1425.85,977.344 1425.58,978.198C1421.05,992.375 1417.97,1007.87 1421.74,1022.59C1424.27,1032.46 1430.43,1041.09 1436.37,1049.19C1449.55,1067.17 1466.12,1082.78 1482.54,1097.79C1491.99,1106.44 1501.7,1114.91 1512.51,1121.85C1517.7,1125.17 1524.94,1127.97 1531.08,1125.55C1540.17,1121.96 1541.48,1110.93 1538.52,1102.84C1533.7,1089.64 1522.32,1077.48 1509.66,1071.22C1511.76,1070.21 1512.77,1068.97 1513.17,1067.64C1513.57,1066.31 1513.33,1064.83 1512.76,1063.28C1512.28,1061.97 1511.54,1060.59 1510.88,1059.19C1511.06,1059.3 1511.24,1059.41 1511.41,1059.51C1525.31,1067.92 1539.87,1074.35 1556.4,1073.81C1564.66,1073.54 1573.55,1071.1 1577.45,1063.17C1580.35,1057.28 1578.59,1052.14 1574.71,1047.79C1569.21,1041.62 1559.32,1037.08 1553.4,1034.29C1550.87,1033.1 1548.28,1032.02 1545.68,1030.96C1542.39,1029.61 1539.09,1028.27 1535.86,1026.77C1533.96,1025.9 1529.29,1024.06 1525.88,1021.68C1524.96,1021.03 1524.13,1020.36 1523.5,1019.64C1524.82,1018.21 1526.1,1016.74 1527.32,1015.24C1527.81,1015.19 1528.26,1015.14 1528.6,1015.06C1529.8,1014.79 1531.02,1014.5 1532.23,1014.19C1532.11,1014.83 1532.15,1015.52 1532.42,1016.24C1533.08,1018.05 1534.75,1019.4 1536.84,1020.36C1539.65,1021.66 1543.19,1022.27 1545.34,1022.67C1551.48,1023.81 1561.41,1025.06 1569.77,1023.63C1575.57,1022.64 1580.6,1020.35 1583.29,1016.01C1587.08,1009.88 1585.69,1002.84 1581.73,996.274C1575.98,986.743 1564.84,978.238 1557.44,975.257C1556.73,974.973 1556.36,974.215 1556.1,973.158C1555.77,971.801 1555.7,969.993 1555.81,967.824C1555.87,966.738 1555.97,965.566 1556.11,964.32C1559.06,958.714 1562.19,953.211 1565.72,947.959C1579.93,926.795 1600.67,912.099 1617.33,893.14C1637.25,870.464 1655.08,839.389 1665.28,810.986C1666.66,807.134 1667.71,803.144 1668.07,799.055C1668.84,790.217 1666.9,785.034 1663.41,782.086L1663.41,782.081C1690.93,767.587 1710.52,743.51 1735.53,724.589C1762.82,703.94 1795.19,690.233 1822.07,669.301C1822.49,668.974 1822.57,668.366 1822.24,667.945C1821.91,667.525 1821.31,667.449 1820.89,667.777C1794.01,688.703 1761.64,702.404 1734.36,723.048C1709.17,742.108 1689.54,766.477 1661.62,780.839C1658.29,778.933 1653.91,778.434 1649.01,778.618C1643.43,778.828 1637.18,779.897 1631.14,780.533C1625.27,781.15 1619.61,781.37 1615.04,779.878C1613.21,779.281 1610.03,776.986 1606.31,774.163C1600.53,769.776 1593.55,764.103 1588.35,761.045C1585.95,759.635 1583.88,758.787 1582.43,758.743C1581.09,758.703 1580.15,759.237 1579.66,760.385C1578.88,762.194 1579.21,764.502 1580.25,766.925C1582.46,772.052 1587.81,777.787 1590.05,779.854C1605.95,794.489 1630.42,795.247 1649.81,788.14C1653.88,786.647 1657.77,784.941 1661.52,783.056C1661.74,783.215 1661.96,783.383 1662.17,783.562C1665.3,786.214 1666.83,790.934 1666.14,798.888C1665.8,802.81 1664.79,806.637 1663.46,810.333C1653.34,838.52 1635.65,869.36 1615.88,891.864C1599.16,910.886 1578.38,925.647 1564.11,946.881C1561.51,950.747 1559.13,954.747 1556.88,958.822C1558.6,948.157 1561.88,934.074 1563.72,920.784C1565.19,910.121 1565.73,899.96 1563.87,892.414C1562.58,887.151 1560.12,883.132 1556.11,880.954C1555.82,880.796 1555.52,880.648 1555.22,880.511C1557.15,878.942 1558.87,877.139 1560.25,874.974C1562.79,870.984 1562.17,866.824 1560.85,862.618C1560.04,860.031 1558.95,857.43 1558.33,854.846C1558.91,854.407 1559.46,853.941 1559.98,853.447C1561.33,852.152 1562.39,850.663 1562.86,848.977C1563.06,848.29 1563.45,846.88 1563.33,845.828C1563.26,845.142 1562.98,844.578 1562.5,844.217C1561.76,843.657 1561.06,843.468 1560.42,843.504C1559.49,843.556 1558.65,844.109 1557.97,845.002C1556.62,846.778 1555.9,849.958 1555.9,851.114C1555.9,852.074 1556.01,853.04 1556.19,854.01C1555,854.824 1553.78,855.526 1552.71,856.133C1545.37,860.285 1537.42,862.311 1529.25,864.105C1522.51,865.586 1514.74,867 1510.67,873.268C1509.36,875.273 1508.77,877.7 1508.59,880.254C1508.34,883.89 1508.92,887.788 1509.29,890.968C1509.62,893.863 1510.07,896.757 1510.48,899.65C1501.6,906.51 1492.02,913.991 1483.72,919.709C1478.85,923.062 1474.43,925.806 1470.87,927.442C1468.64,928.467 1466.77,929.062 1465.37,929.028C1461.9,928.945 1459.06,930.733 1456.59,933.448C1454.28,935.983 1452.27,939.334 1450.28,942.539C1448.38,945.599 1446.51,948.526 1444.34,950.371C1442.39,952.032 1440.2,952.749 1437.49,951.644C1433.15,949.874 1430.12,949.335 1427.46,948.864C1423.7,948.197 1420.75,947.672 1415.67,943.558C1410.56,939.418 1404.5,934.844 1397.58,935.337C1395.12,935.513 1392.63,936.195 1390.19,937.228C1390.11,935.953 1390.42,934.53 1391.19,932.923C1391.98,931.268 1393.16,929.765 1394.3,928.337C1396.07,926.126 1398.14,924.168 1400.22,922.26C1404.2,918.622 1408.07,914.885 1412,911.202C1417.99,905.591 1423.75,899.777 1429.22,893.652C1440.63,880.863 1454.24,870.43 1465.68,857.572C1478.56,843.105 1489.92,827.345 1503.95,813.91C1526.65,792.163 1552.37,776.472 1570.37,749.997C1577.71,739.201 1582.89,722.293 1588.99,711.286C1606.95,678.866 1628.66,647.594 1658.42,624.83C1665.44,619.458 1676.02,611.776 1686.82,607.79C1693.85,605.195 1700.98,604.157 1707.23,606.495C1709.62,607.391 1711.11,608.701 1711.89,610.313C1712.68,611.943 1712.75,613.854 1712.38,615.875C1711.21,622.439 1705.59,630.079 1702.65,633.954C1690.1,650.516 1674.92,665.971 1667.63,685.847C1665.98,690.366 1664.4,696.264 1664.9,701.578C1665.25,705.273 1666.6,708.69 1669.53,711.244C1674,715.139 1679.55,715.128 1685.01,713.084C1692.87,710.147 1700.54,702.973 1704.2,698.018C1718.8,678.279 1719.7,654.712 1727.41,632.377C1728.76,628.442 1730.68,623.504 1733.54,619.574C1736.27,615.823 1739.85,612.982 1744.68,613.057C1748.55,613.117 1751.43,614.051 1753.55,615.667C1756.02,617.545 1757.43,620.327 1758.24,623.604C1759.09,627.033 1759.26,630.995 1759.18,635.086C1759.03,642.282 1758.1,649.872 1758.47,655.785C1758.73,660.012 1759.68,663.413 1761.84,665.384C1762.23,665.744 1762.84,665.717 1763.2,665.323C1763.56,664.929 1763.54,664.318 1763.14,663.958C1761.29,662.265 1760.62,659.296 1760.39,655.667C1760.04,649.798 1760.97,642.266 1761.11,635.125C1761.19,630.854 1761,626.721 1760.12,623.141C1759.2,619.409 1757.53,616.269 1754.72,614.13C1752.33,612.303 1749.09,611.193 1744.71,611.125C1740.29,611.056 1736.75,613.065 1733.92,616.078C1729.86,620.398 1727.28,626.818 1725.58,631.747C1717.94,653.896 1717.12,677.295 1702.65,696.869C1699.15,701.601 1691.84,708.469 1684.34,711.274C1679.56,713.059 1674.7,713.189 1670.8,709.787C1667.6,707.005 1666.64,703.018 1666.75,698.887C1666.86,694.571 1668.14,690.089 1669.45,686.512C1676.67,666.817 1691.76,651.533 1704.19,635.121C1707.26,631.076 1713.07,623.067 1714.29,616.214C1714.73,613.762 1714.59,611.449 1713.63,609.471C1712.66,607.475 1710.87,605.795 1707.9,604.685C1701.24,602.193 1693.65,603.211 1686.15,605.977C1675.16,610.032 1664.39,617.83 1657.24,623.296C1627.28,646.221 1605.39,677.699 1587.3,710.349C1581.22,721.312 1576.08,738.158 1568.77,748.91C1550.85,775.27 1525.21,790.862 1502.61,812.514C1488.55,825.985 1477.15,841.782 1464.24,856.287C1452.8,869.145 1439.19,879.576 1427.78,892.366C1422.35,898.447 1416.63,904.22 1410.68,909.791C1406.75,913.469 1402.89,917.201 1398.92,920.835C1396.76,922.81 1394.62,924.841 1392.79,927.131C1391.56,928.672 1390.3,930.304 1389.45,932.09C1388.37,934.354 1388.07,936.333 1388.33,938.078C1387.14,938.67 1385.95,939.337 1384.78,940.061C1378.73,943.81 1373.1,949.081 1368.69,953.033C1343.5,975.577 1328.63,1007.73 1315.7,1038.29C1314.42,1041.32 1313.16,1044.35 1311.93,1047.4C1310.97,1049.79 1310.03,1052.19 1309.12,1054.6C1307.43,1059.09 1304.88,1067.36 1305.39,1074.26C1305.75,1079.13 1307.62,1083.33 1312.12,1085.29C1317.96,1087.84 1324.6,1085.23 1329.66,1082.22C1341.16,1075.38 1351.11,1064.38 1358.82,1053.59C1360.71,1050.94 1363.06,1047.77 1364.53,1044.4C1365.54,1042.09 1366.13,1039.69 1365.95,1037.29ZM1659.48,781.914C1656.61,780.668 1653.02,780.401 1649.08,780.549C1642.42,780.8 1634.79,782.286 1627.73,782.775C1622.88,783.11 1618.3,782.973 1614.44,781.716C1612.97,781.235 1610.66,779.764 1607.92,777.771C1601.8,773.321 1593.39,766.247 1587.37,762.711C1585.63,761.693 1584.12,760.971 1582.93,760.742C1582.22,760.603 1581.66,760.608 1581.43,761.146C1581.05,762.036 1581.09,763.089 1581.36,764.221C1581.67,765.498 1582.29,766.863 1583.07,768.23C1585.51,772.49 1589.53,776.743 1591.36,778.433C1606.73,792.58 1630.4,793.195 1649.14,786.325C1652.72,785.013 1656.16,783.535 1659.48,781.914ZM1529.11,1012.96C1530.56,1012.63 1532.02,1012.27 1533.45,1011.85C1534.45,1010.72 1535.9,1009.8 1536.96,1009.12C1540,1007.21 1543.24,1005.86 1546.37,1004.31L1546.48,1004.18C1548.66,1001.51 1550.27,996.03 1552.49,991.691C1554.13,988.492 1556.14,985.912 1558.75,985.114C1559.34,984.933 1559.84,984.971 1560.27,985.133C1560.86,985.36 1561.33,985.861 1561.64,986.549C1562.2,987.798 1562.21,989.733 1562.07,990.567C1561.4,994.539 1558.36,998 1555.51,1000.64C1553.11,1002.85 1550.43,1004.4 1547.65,1005.79C1544.2,1009.8 1539.53,1012.01 1534.59,1013.52C1534.17,1014.12 1533.95,1014.81 1534.23,1015.58C1534.73,1016.95 1536.07,1017.88 1537.64,1018.6C1540.31,1019.83 1543.66,1020.39 1545.7,1020.77C1551.66,1021.88 1561.32,1023.12 1569.45,1021.73C1574.65,1020.84 1579.23,1018.89 1581.65,1014.99C1585.06,1009.49 1583.63,1003.17 1580.08,997.273C1574.55,988.105 1563.83,979.917 1556.72,977.05C1555.73,976.65 1554.97,975.809 1554.5,974.524C1553.98,973.137 1553.78,971.165 1553.84,968.724C1549.29,977.71 1545.05,986.857 1540.26,995.564C1536.91,1001.64 1533.29,1007.51 1529.11,1012.96ZM1502.51,1035.75C1504.16,1036.36 1505.73,1037.49 1506.62,1038.66C1508.41,1041 1509.01,1043.88 1509.21,1046.86C1509.39,1049.64 1509.23,1052.51 1509.52,1055.05C1509.56,1055.42 1509.63,1055.8 1509.73,1056.17C1510.71,1056.81 1511.62,1057.38 1512.41,1057.86C1525.98,1066.08 1540.19,1072.41 1556.33,1071.88C1563.9,1071.63 1572.14,1069.58 1575.72,1062.31C1578.21,1057.24 1576.61,1052.83 1573.26,1049.08C1567.93,1043.1 1558.31,1038.75 1552.58,1036.04C1550.07,1034.86 1547.52,1033.8 1544.95,1032.75C1541.63,1031.39 1538.31,1030.03 1535.05,1028.53C1532.75,1027.47 1526.57,1025.02 1523.09,1021.95C1522.75,1021.65 1522.44,1021.35 1522.16,1021.05C1516.93,1026.44 1510.87,1031.23 1503.6,1035.17C1503.24,1035.37 1502.87,1035.57 1502.51,1035.75ZM1549.78,1002.48C1551.32,1001.55 1552.81,1000.5 1554.2,999.22C1556.75,996.855 1559.57,993.807 1560.16,990.246C1560.25,989.733 1560.27,988.655 1560.03,987.776C1559.97,987.556 1559.9,987.35 1559.8,987.178C1559.74,987.078 1559.68,986.985 1559.59,986.943C1559.51,986.908 1559.42,986.929 1559.31,986.962C1557.13,987.629 1555.58,989.9 1554.21,992.573C1552.57,995.776 1551.23,999.572 1549.78,1002.48ZM1463.96,1000.37C1453.82,1012.29 1454.5,1024.15 1461.55,1031.61C1468.8,1039.28 1482.56,1042.2 1497.77,1035.83C1498.03,1035.68 1498.3,1035.57 1498.59,1035.48C1499.94,1034.89 1501.31,1034.22 1502.68,1033.48C1509.87,1029.57 1515.85,1024.82 1521.01,1019.47C1520.57,1018.68 1520.33,1017.87 1520.35,1017.05C1520.37,1015.45 1521.43,1014.5 1522.96,1013.98C1523.97,1013.64 1525.22,1013.52 1526.31,1013.42C1530.98,1007.58 1534.93,1001.23 1538.57,994.632C1544.08,984.613 1548.86,974.017 1554.24,963.749C1555.54,952.732 1559.65,936.084 1561.8,920.52C1563.24,910.129 1563.8,900.229 1561.99,892.875C1560.85,888.205 1558.74,884.584 1555.19,882.652C1554.63,882.348 1554.04,882.087 1553.41,881.869C1551.28,883.357 1548.95,884.634 1546.57,885.839C1541.4,888.445 1535.93,890.709 1531.67,894.245C1528.09,897.223 1525.82,901.189 1523.88,905.375C1521.87,909.715 1520.21,914.292 1517.94,918.336C1515.96,921.852 1513.52,925.787 1510.32,928.605C1507.07,936.834 1502,944.433 1497.35,951.835C1489.57,964.226 1481.83,976.642 1474.02,989.018C1473.47,989.889 1472.85,990.81 1472.19,991.772C1473.6,991.227 1474.96,990.778 1475.78,990.522C1484.76,987.73 1493.52,989.364 1501.07,995.015C1504.29,997.427 1507.64,1001.3 1507.48,1005.6C1507.31,1010.26 1504.99,1016.67 1501.49,1021.68C1499.11,1025.08 1496.18,1027.83 1493.07,1029.01C1488.24,1030.84 1482.34,1029.75 1477.42,1028.92C1473.58,1028.27 1467.91,1027.12 1463.83,1024.57C1460.92,1022.74 1458.8,1020.21 1458.48,1016.73C1458.11,1012.72 1459.52,1008.46 1461.69,1004.3C1462.39,1002.98 1463.15,1001.66 1463.96,1000.37ZM1556.66,856.019C1555.62,856.692 1554.59,857.289 1553.66,857.815C1546.15,862.063 1538.03,864.157 1529.66,865.992C1526.46,866.697 1523,867.356 1519.85,868.589C1516.85,869.768 1514.14,871.474 1512.29,874.322C1510.86,876.512 1510.46,879.292 1510.46,882.127C1510.46,885.117 1510.91,888.173 1511.21,890.747C1511.5,893.266 1511.87,895.785 1512.23,898.303C1517.04,894.595 1521.59,891.121 1525.57,888.271C1530.7,884.593 1534.91,881.952 1537.49,881.114C1544.03,878.991 1549.13,878.686 1553.06,879.746C1555.22,878.14 1557.13,876.266 1558.62,873.935C1560.82,870.469 1560.16,866.851 1559.01,863.197C1558.26,860.812 1557.31,858.41 1556.66,856.019ZM1557.93,852.69C1558.18,852.484 1558.41,852.271 1558.64,852.052C1559.73,851.005 1560.62,849.819 1561,848.456C1561.13,847.988 1561.41,847.105 1561.43,846.336C1561.43,846.188 1561.42,846.046 1561.39,845.917C1561.38,845.857 1561.38,845.793 1561.33,845.759C1561.01,845.516 1560.73,845.398 1560.46,845.441C1560.17,845.486 1559.93,845.685 1559.71,845.935C1559.26,846.426 1558.9,847.128 1558.61,847.856C1558.11,849.125 1557.84,850.485 1557.84,851.114C1557.84,851.638 1557.87,852.163 1557.93,852.69ZM1428.06,974.715C1428.06,976.079 1427.85,977.441 1427.42,978.787C1423,992.624 1419.93,1007.75 1423.61,1022.11C1426.08,1031.75 1432.13,1040.14 1437.92,1048.05C1451.03,1065.93 1467.52,1081.44 1483.84,1096.37C1493.22,1104.94 1502.84,1113.35 1513.56,1120.22C1518.26,1123.24 1524.8,1125.95 1530.37,1123.75C1538.44,1120.56 1539.33,1110.69 1536.7,1103.5C1531.84,1090.18 1520.04,1077.95 1507.15,1072.17C1506.89,1072.25 1506.63,1072.32 1506.37,1072.39C1504.67,1072.86 1502.95,1073.3 1501.21,1073.57C1498.04,1074.07 1494.03,1076.33 1490.26,1077.17C1487.43,1077.81 1484.73,1077.69 1482.49,1075.87C1479.46,1073.41 1481.2,1069.63 1483.96,1068.15C1487.86,1066.06 1492.37,1066.12 1496.62,1066.78C1500.34,1067.36 1503.83,1068.61 1507.26,1070.11C1507.76,1069.94 1508.24,1069.75 1508.72,1069.53C1510.23,1068.82 1511.04,1068.03 1511.32,1067.09C1511.61,1066.12 1511.36,1065.07 1510.95,1063.95C1510.18,1061.88 1508.85,1059.63 1508.1,1057.4C1504.92,1055.27 1501.19,1052.39 1498.62,1049.12C1496.1,1045.91 1494.7,1042.34 1495.7,1038.7C1480.71,1043.95 1467.37,1040.59 1460.15,1032.94C1451.6,1023.9 1451.35,1008.75 1467.09,994.375C1467.49,994.016 1468.08,993.643 1468.77,993.276C1470.11,991.379 1471.37,989.599 1472.39,987.988C1480.19,975.612 1487.93,963.197 1495.72,950.807C1499.76,944.369 1504.15,937.787 1507.32,930.753C1507.01,930.926 1506.69,931.088 1506.37,931.237C1502.66,932.949 1498.62,933.216 1494.52,933.383C1490.64,933.541 1486.72,933.609 1483.03,934.933C1467.9,940.358 1454.58,950.954 1444.81,963.511C1440.95,968.475 1434.61,971.699 1428.06,974.715ZM1512.54,900.503C1513.55,907.917 1514.24,915.323 1512.28,922.716C1512.14,923.208 1512.01,923.699 1511.86,924.185C1513.57,922.032 1515,919.611 1516.25,917.388C1518.51,913.388 1520.13,908.856 1522.12,904.563C1524.18,900.115 1526.63,895.923 1530.44,892.759C1534.8,889.133 1540.39,886.785 1545.69,884.113C1547.47,883.219 1549.21,882.289 1550.85,881.254C1547.48,880.76 1543.28,881.268 1538.09,882.952C1535.62,883.754 1531.61,886.321 1526.69,889.842C1522.49,892.853 1517.64,896.561 1512.54,900.503ZM1524.53,1015.57C1524.2,1015.63 1523.87,1015.72 1523.57,1015.82C1522.88,1016.05 1522.29,1016.36 1522.28,1017.08C1522.28,1017.38 1522.33,1017.67 1522.42,1017.96C1523.14,1017.17 1523.85,1016.38 1524.53,1015.57ZM1498.64,1037.56C1498.59,1037.6 1498.54,1037.63 1498.49,1037.67C1498.07,1037.99 1497.76,1038.49 1497.57,1039.19C1496.71,1042.25 1498.02,1045.23 1500.13,1047.92C1502.15,1050.49 1504.92,1052.8 1507.54,1054.67C1507.33,1052.25 1507.45,1049.58 1507.28,1046.99C1507.11,1044.39 1506.64,1041.87 1505.09,1039.84C1504.2,1038.67 1502.46,1037.57 1500.81,1037.28C1500.27,1037.18 1499.74,1037.17 1499.27,1037.29L1498.97,1037.42L1498.64,1037.56ZM1504.27,1070.95C1501.7,1069.94 1499.08,1069.12 1496.32,1068.69C1492.48,1068.09 1488.4,1067.96 1484.88,1069.85C1483.24,1070.73 1481.91,1072.91 1483.71,1074.37C1485.95,1076.19 1488.79,1075.7 1491.66,1074.78C1494.91,1073.74 1498.21,1072.09 1500.91,1071.66C1502.04,1071.49 1503.16,1071.23 1504.27,1070.95ZM1390.62,939.143C1391.52,941.395 1393.71,943.097 1396.34,944.564C1401.46,947.425 1408.24,949.329 1411.94,951.735C1417.13,955.113 1422.81,960.412 1425.83,966.27C1426.9,968.345 1427.64,970.49 1427.93,972.648C1433.94,969.862 1439.73,966.893 1443.28,962.325C1453.27,949.483 1466.9,938.661 1482.37,933.114C1486.25,931.723 1490.37,931.618 1494.44,931.452C1498.28,931.296 1502.08,931.088 1505.56,929.483C1506.68,928.963 1507.72,928.279 1508.69,927.478C1509.35,925.755 1509.93,924.004 1510.41,922.219C1512.21,915.44 1511.7,908.651 1510.79,901.854C1502.13,908.545 1492.87,915.752 1484.82,921.301C1479.84,924.728 1475.32,927.526 1471.68,929.198C1469.11,930.379 1466.94,930.999 1465.32,930.96C1462.42,930.891 1460.09,932.477 1458.02,934.75C1455.78,937.204 1453.85,940.456 1451.92,943.558C1449.91,946.803 1447.89,949.886 1445.6,951.842C1443.08,953.982 1440.25,954.857 1436.76,953.434C1431.52,951.296 1428.25,951.027 1425.21,950.41C1422,949.759 1419.02,948.757 1414.46,945.059C1409.71,941.213 1404.14,936.807 1397.72,937.265C1395.35,937.434 1392.96,938.118 1390.62,939.143ZM1470.11,994.722C1467.81,997.968 1465.31,1001.54 1463.41,1005.19C1461.42,1009 1460.07,1012.89 1460.4,1016.55C1460.66,1019.41 1462.47,1021.43 1464.86,1022.93C1468.73,1025.35 1474.1,1026.4 1477.74,1027.01C1482.35,1027.79 1487.86,1028.92 1492.38,1027.2C1495.18,1026.14 1497.77,1023.63 1499.9,1020.57C1503.18,1015.88 1505.39,1009.89 1505.55,1005.53C1505.69,1001.85 1502.67,998.627 1499.91,996.562C1492.88,991.298 1484.72,989.766 1476.36,992.367C1475.02,992.784 1472.13,993.713 1470.11,994.722ZM1388.87,939.97C1387.84,940.494 1386.81,941.078 1385.8,941.704C1379.84,945.392 1374.32,950.586 1369.97,954.473C1345,976.828 1330.3,1008.74 1317.48,1039.04C1316.21,1042.06 1314.95,1045.08 1313.72,1048.12C1312.77,1050.5 1311.83,1052.88 1310.93,1055.28C1309.31,1059.59 1306.83,1067.51 1307.32,1074.12C1307.62,1078.24 1309.09,1081.86 1312.9,1083.52C1318.16,1085.82 1324.11,1083.27 1328.67,1080.56C1339.95,1073.86 1349.68,1063.05 1357.24,1052.47C1358.77,1050.33 1360.61,1047.86 1362,1045.2C1363.18,1042.96 1364.04,1040.58 1364.05,1038.2C1363.79,1038.29 1363.51,1038.38 1363.23,1038.45C1359.79,1039.37 1356.16,1039.28 1352.72,1038.47C1350.38,1037.91 1347.98,1037.21 1345.83,1036.08C1344.6,1035.44 1343.41,1034.66 1342.27,1033.85C1340.46,1032.56 1339.48,1031.26 1339.13,1030.14C1338.84,1029.2 1338.94,1028.35 1339.36,1027.62C1339.75,1026.95 1340.42,1026.37 1341.38,1025.98C1342.59,1025.48 1344.31,1025.25 1346.43,1025.46C1349.78,1025.78 1355.78,1027.11 1360.19,1029.69C1362.69,1031.15 1364.66,1033.02 1365.51,1035.28C1368.03,1033.51 1369.53,1030.57 1371.1,1027.84C1374.62,1021.74 1377.65,1015.12 1382.37,1009.83C1386.84,1004.82 1392.96,1001.95 1397.61,997.251C1401.86,992.962 1404.74,987.587 1409.1,983.38C1413.43,979.212 1419.77,976.384 1426.08,973.498C1425.89,971.354 1425.18,969.217 1424.11,967.156C1421.24,961.586 1415.82,956.566 1410.89,953.355C1408.72,951.943 1405.46,950.72 1402.12,949.356C1398.63,947.931 1395.06,946.359 1392.45,944.334C1390.83,943.074 1389.57,941.635 1388.87,939.97ZM1363.8,1036.22C1363.17,1034.22 1361.39,1032.63 1359.21,1031.35C1355.06,1028.92 1349.4,1027.68 1346.25,1027.38C1344.79,1027.24 1343.56,1027.32 1342.61,1027.6C1341.86,1027.81 1341.3,1028.13 1341.04,1028.58C1340.82,1028.96 1340.87,1029.42 1341.12,1029.92C1341.49,1030.66 1342.24,1031.45 1343.39,1032.28C1344.46,1033.04 1345.57,1033.77 1346.73,1034.37C1348.73,1035.42 1350.97,1036.07 1353.17,1036.59C1356.3,1037.33 1359.6,1037.42 1362.73,1036.58C1363.1,1036.49 1363.46,1036.37 1363.8,1036.22Z"/></g></svg>